<svg width="20" height="20" viewBox="0 0 20 20" fill="none" xmlns="http://www.w3.org/2000/svg">
<path d="M18.7478 10.0011H1.24986C0.898334 10.0011 0.602144 9.88072 0.361287 9.63986C0.120429 9.399 0 9.10607 0 8.76106C0 8.41604 0.120429 8.11985 0.361287 7.87249C0.602144 7.62512 0.898334 7.50144 1.24986 7.50144H2.34348C2.60387 7.89202 2.93912 8.19797 3.34922 8.4193C3.75933 8.64063 4.20525 8.75129 4.68696 8.75129C5.16868 8.75129 5.61459 8.64063 6.0247 8.4193C6.43481 8.19797 6.77005 7.89202 7.03044 7.50144H12.9673C13.2276 7.89202 13.5629 8.19797 13.973 8.4193C14.3831 8.64063 14.829 8.75129 15.3107 8.75129C15.7925 8.75129 16.2384 8.64063 16.6485 8.4193C17.0586 8.19797 17.3938 7.89202 17.6542 7.50144H18.7478C19.0994 7.50144 19.3956 7.62512 19.6364 7.87249C19.8773 8.11985 19.9977 8.41604 19.9977 8.76106C19.9977 9.10607 19.874 9.399 19.6266 9.63986C19.3793 9.88072 19.0863 10.0011 18.7478 10.0011ZM15.7404 7.38426C15.493 7.52747 15.2326 7.56002 14.9592 7.48191C14.6858 7.40379 14.4775 7.24105 14.3343 6.99368L11.3854 1.56462C11.2422 1.31725 11.2064 1.05361 11.278 0.773693C11.3496 0.493777 11.5091 0.282213 11.7565 0.139001C12.0038 -0.00421214 12.2642 -0.0367605 12.5376 0.0413555C12.811 0.119472 13.0193 0.282213 13.1625 0.529581L16.1114 5.95864C16.2546 6.20601 16.2904 6.46965 16.2188 6.74957C16.1472 7.02948 15.9877 7.24105 15.7404 7.38426ZM5.66341 6.99368C5.5202 7.24105 5.31189 7.40379 5.03848 7.48191C4.76508 7.56002 4.50469 7.52747 4.25732 7.38426C4.00996 7.24105 3.85047 7.02948 3.77886 6.74957C3.70726 6.46965 3.74306 6.20601 3.88627 5.95864L6.83515 0.529581C6.97836 0.282213 7.18667 0.119472 7.46008 0.0413555C7.73349 -0.0367605 7.99387 -0.00421214 8.24124 0.139001C8.48861 0.282213 8.64809 0.493777 8.7197 0.773693C8.79131 1.05361 8.7555 1.31725 8.61229 1.56462L5.66341 6.99368ZM17.498 18.7501C17.3938 19.2709 17.2018 19.6094 16.9219 19.7657C16.642 19.9219 16.2156 20 15.6427 20H4.43308C3.84721 20 3.40456 19.9219 3.10511 19.7657C2.80567 19.6094 2.60387 19.2709 2.49971 18.7501L1.24986 11.251H18.7478L17.498 18.7501ZM14.3733 15.0006H9.37392C9.20467 15.0006 9.0582 15.0624 8.93452 15.1861C8.81084 15.3098 8.74899 15.4563 8.74899 15.6255C8.74899 15.7948 8.81084 15.9412 8.93452 16.0649C9.0582 16.1886 9.20467 16.2504 9.37392 16.2504H14.3733C14.5426 16.2504 14.6891 16.1886 14.8127 16.0649C14.9364 15.9412 14.9983 15.7948 14.9983 15.6255C14.9983 15.4563 14.9364 15.3098 14.8127 15.1861C14.6891 15.0624 14.5426 15.0006 14.3733 15.0006Z" fill="#2D9CEE"/>
</svg>
